<?xml version="1.0" encoding="UTF-8" standalone="no"?>
<!DOCTYPE svg PUBLIC "-//W3C//DTD SVG 1.1//EN" "http://www.w3.org/Graphics/SVG/1.1/DTD/svg11.dtd">
<svg width="100%" height="100%" viewBox="0 0 256 208" version="1.1" xmlns="http://www.w3.org/2000/svg" xmlns:xlink="http://www.w3.org/1999/xlink" xml:space="preserve" xmlns:serif="http://www.serif.com/" style="fill-rule:evenodd;clip-rule:evenodd;stroke-linejoin:round;stroke-miterlimit:2;">
    <g transform="matrix(1,0,0,0.93561,0,9.098952)">
        <path d="M80,52C76.708,52 74,49.292 74,46L74,18C74,10.32 80.32,4 88,4L168,4C175.68,4 182,10.32 182,18L182,46C182,49.292 179.292,52 176,52L168,52L168,26C168,21.611 164.389,18 160,18L96,18C91.611,18 88,21.611 88,26L88,52L80,52Z" style="fill:rgb(30,41,59);fill-rule:nonzero;stroke:rgb(245,166,35);stroke-width:5.16px;"/>
    </g>
    <g transform="matrix(1,0,0,1,0,0.541144)">
        <path d="M228,74L228,174C228,186.142 218.142,196 206,196L50,196C37.858,196 28,186.142 28,174L28,74C28,61.858 37.858,52 50,52L206,52C218.142,52 228,61.858 228,74Z" style="fill:rgb(30,41,59);stroke:rgb(30,41,59);stroke-width:1px;"/>
    </g>
    <g transform="matrix(1,0,0,1,0,0.541144)">
        <path d="M228,74L228,174C228,186.142 218.142,196 206,196L50,196C37.858,196 28,186.142 28,174L28,74C28,61.858 37.858,52 50,52L206,52C218.142,52 228,61.858 228,74Z" style="fill:rgb(30,41,59);stroke:rgb(245,166,35);stroke-width:1px;"/>
    </g>
    <g transform="matrix(6.119113,0,0,1.004119,-143.465339,-0.262809)">
        <rect x="28.023" y="103.285" width="32.645" height="5.57" style="fill:rgb(160,161,170);fill-opacity:0.51;"/>
    </g>
    <g transform="matrix(1,0,0,1,128.40656,124.111378)">
        <text x="-72.246px" y="0px" style="font-family:'Menlo-Bold', 'Menlo', monospace;font-weight:700;font-size:60px;fill:rgb(245,166,35);">{ck}</text>
    </g>
    <g transform="matrix(1,0,0,1,1.290465,15.326038)">
        <circle cx="128" cy="128" r="10" style="fill:rgb(245,166,35);"/>
    </g>
    <g transform="matrix(1,0,0,1,1.290465,15.326038)">
        <path d="M122,134L118,158L138,158L134,134L122,134Z" style="fill:rgb(245,166,35);fill-rule:nonzero;"/>
    </g>
</svg>
