<?xml version="1.0" encoding="UTF-8" standalone="no"?>
<!DOCTYPE svg PUBLIC "-//W3C//DTD SVG 1.1//EN" "http://www.w3.org/Graphics/SVG/1.1/DTD/svg11.dtd">
<svg width="100%" height="100%" viewBox="0 0 256 208" version="1.1" xmlns="http://www.w3.org/2000/svg" xmlns:xlink="http://www.w3.org/1999/xlink" xml:space="preserve" xmlns:serif="http://www.serif.com/" style="fill-rule:evenodd;clip-rule:evenodd;stroke-linejoin:round;stroke-miterlimit:2;">
    <g transform="matrix(1,0,0,0.93561,0,9.09895)">
        <path d="M80,52C76.708,52 74,49.292 74,46L74,18C74,10.32 80.32,4 88,4L168,4C175.68,4 182,10.32 182,18L182,46C182,49.292 179.292,52 176,52L168,52L168,26C168,21.611 164.389,18 160,18L96,18C91.611,18 88,21.611 88,26L88,52L80,52Z" style="fill:rgb(245,166,35);fill-rule:nonzero;stroke:rgb(30,41,59);stroke-width:5.16px;"/>
    </g>
    <g transform="matrix(1,0,0,1,0,0.541144)">
        <path d="M228,74L228,174C228,186.142 218.142,196 206,196L50,196C37.858,196 28,186.142 28,174L28,74C28,61.858 37.858,52 50,52L206,52C218.142,52 228,61.858 228,74Z" style="fill:rgb(30,41,59);stroke:rgb(30,41,59);stroke-width:1px;"/>
    </g>
    <g transform="matrix(6.11911,0,0,1.00412,-143.465,-0.262809)">
        <rect x="28.023" y="103.285" width="32.645" height="5.57" style="fill:rgb(160,161,170);fill-opacity:0.51;"/>
    </g>
    <g transform="matrix(1,0,0,1,128.407,124.111)">
        <g transform="matrix(60,0,0,60,-72.2461,0)">
            <path d="M0.514,0.07L0.514,0.163L0.441,0.163C0.36,0.163 0.306,0.151 0.278,0.127C0.251,0.103 0.237,0.055 0.237,-0.017L0.237,-0.122C0.237,-0.171 0.228,-0.205 0.211,-0.224C0.193,-0.243 0.162,-0.252 0.116,-0.252L0.086,-0.252L0.086,-0.345L0.116,-0.345C0.162,-0.345 0.193,-0.354 0.211,-0.373C0.228,-0.392 0.237,-0.426 0.237,-0.475L0.237,-0.58C0.237,-0.652 0.251,-0.7 0.278,-0.724C0.306,-0.748 0.36,-0.76 0.441,-0.76L0.514,-0.76L0.514,-0.667L0.454,-0.667C0.42,-0.667 0.398,-0.66 0.386,-0.646C0.375,-0.633 0.369,-0.603 0.369,-0.556L0.369,-0.454C0.369,-0.4 0.361,-0.363 0.345,-0.341C0.329,-0.319 0.301,-0.305 0.26,-0.299C0.301,-0.292 0.329,-0.278 0.345,-0.255C0.361,-0.233 0.369,-0.195 0.369,-0.142L0.369,-0.042C0.369,0.005 0.375,0.035 0.386,0.049C0.398,0.063 0.42,0.07 0.454,0.07L0.514,0.07Z" style="fill:rgb(245,166,35);fill-rule:nonzero;"/>
        </g>
        <g transform="matrix(60,0,0,60,-36.123,0)">
            <path d="M0.518,-0.028C0.494,-0.014 0.468,-0.003 0.44,0.004C0.413,0.011 0.383,0.014 0.351,0.014C0.267,0.014 0.201,-0.011 0.153,-0.062C0.106,-0.113 0.082,-0.183 0.082,-0.273C0.082,-0.363 0.106,-0.434 0.154,-0.485C0.202,-0.536 0.268,-0.561 0.352,-0.561C0.381,-0.561 0.41,-0.558 0.437,-0.551C0.464,-0.544 0.491,-0.533 0.518,-0.519L0.518,-0.388C0.497,-0.406 0.474,-0.42 0.449,-0.429C0.425,-0.439 0.399,-0.444 0.372,-0.444C0.326,-0.444 0.29,-0.429 0.265,-0.399C0.24,-0.37 0.227,-0.328 0.227,-0.273C0.227,-0.218 0.24,-0.176 0.265,-0.147C0.29,-0.118 0.326,-0.103 0.372,-0.103C0.4,-0.103 0.426,-0.108 0.45,-0.117C0.474,-0.126 0.497,-0.14 0.518,-0.159L0.518,-0.028Z" style="fill:rgb(245,166,35);fill-rule:nonzero;"/>
        </g>
        <g transform="matrix(60,0,0,60,0,0)">
            <path d="M0.085,-0.76L0.228,-0.76L0.228,-0.361L0.4,-0.547L0.573,-0.547L0.366,-0.343L0.585,-0L0.427,-0L0.277,-0.256L0.228,-0.209L0.228,-0L0.085,-0L0.085,-0.76Z" style="fill:rgb(245,166,35);fill-rule:nonzero;"/>
        </g>
        <g transform="matrix(60,0,0,60,36.123,0)">
            <path d="M0.088,0.07L0.147,0.07C0.181,0.07 0.204,0.063 0.215,0.049C0.227,0.035 0.233,0.005 0.233,-0.042L0.233,-0.142C0.233,-0.195 0.241,-0.233 0.257,-0.255C0.273,-0.278 0.301,-0.292 0.342,-0.299C0.301,-0.305 0.272,-0.319 0.257,-0.341C0.241,-0.363 0.233,-0.4 0.233,-0.454L0.233,-0.556C0.233,-0.602 0.227,-0.632 0.216,-0.646C0.204,-0.66 0.181,-0.667 0.147,-0.667L0.088,-0.667L0.088,-0.76L0.161,-0.76C0.242,-0.76 0.296,-0.748 0.323,-0.724C0.35,-0.7 0.364,-0.652 0.364,-0.58L0.364,-0.475C0.364,-0.426 0.373,-0.392 0.39,-0.373C0.408,-0.355 0.44,-0.345 0.486,-0.345L0.516,-0.345L0.516,-0.252L0.486,-0.252C0.44,-0.252 0.408,-0.243 0.39,-0.224C0.373,-0.205 0.364,-0.171 0.364,-0.122L0.364,-0.017C0.364,0.055 0.35,0.103 0.323,0.127C0.296,0.151 0.242,0.163 0.161,0.163L0.088,0.163L0.088,0.07Z" style="fill:rgb(245,166,35);fill-rule:nonzero;"/>
        </g>
    </g>
    <g transform="matrix(1,0,0,1,1.29046,15.326)">
        <circle cx="128" cy="128" r="10" style="fill:rgb(245,166,35);"/>
    </g>
    <g transform="matrix(1,0,0,1,1.29046,15.326)">
        <path d="M122,134L118,158L138,158L134,134L122,134Z" style="fill:rgb(245,166,35);fill-rule:nonzero;"/>
    </g>
</svg>
